# xmcd
#
# Track frame offsets: 
#        150
#        11965
#        23570
#        34753
#        47265
#        60090
#        72851
#        85615
#        99334
#        111750
#        123671
#        136126
#        147069
#        159753
#        172779
#        185655
#        199077
#        210905
#        222073
#        232991
#
# Disc length: 3278 seconds
#
# Revision: 2
# Processed by: cddbd v1.5.2PL0 Copyright (c) Steve Scherf et al.
# Submitted via: ExactAudioCopy v1.0b3
#
DISCID=f30ccc14
DTITLE=Various Artist - Western Swing - 40 Bootstompers From The Golden Age [
DTITLE=Disc 2]
DYEAR=2006
DGENRE=Country
TTITLE0=Wills, Bob and His Texas Playboys - Lil Liza Jane
TTITLE1=Penny, Hank and His Radio Cowboys - Tobacco State Swing
TTITLE2=Hofner, Adolph - Cotton Eyed Joe
TTITLE3=Dexter, Al and His Troopers - Pistol Packin' Mama
TTITLE4=Wills, Johnny Lee - Milk Cow Blues
TTITLE5=Cooley, Spade and His Orchestra - Shame On You
TTITLE6=Penny, Hank - Steel Guitar Stomp
TTITLE7=Bruner, Cliff - That's What I Like About The South
TTITLE8=Williams, Tex - That's What I Like About The West
TTITLE9=Tyler, Johnny - It Ain't Far To The Bar
TTITLE10=Luke Wills' Rhythm Busters - Shut Up And Drink Your Beer
TTITLE11=Thompson, Hank - Humpty Dumpty Heart
TTITLE12=Cooley, Spade and His Orchestra - Oklahoma Stomp
TTITLE13=Williams, Tex and His Western Caravan - Smoke! Smoke! Smoke! (T
TTITLE13=hat Cigarette)
TTITLE14=Wills, Bob and His Texas Playboys - Faded Love
TTITLE15=McAuliffe, Leon - Blue Guitar Stomp
TTITLE16=Penny, Hank - Wildcat Mama
TTITLE17=Cooley, Spade and His Orchestra - Chew Tobacco Rag
TTITLE18=Duncan, Tommy - Nancy Jane
TTITLE19=Dexter, Al - Hi-De-Ho Boogie On A Saturday Night
EXTD=
EXTT0=
EXTT1=
EXTT2=
EXTT3=
EXTT4=
EXTT5=
EXTT6=
EXTT7=
EXTT8=
EXTT9=
EXTT10=
EXTT11=
EXTT12=
EXTT13=
EXTT14=
EXTT15=
EXTT16=
EXTT17=
EXTT18=
EXTT19=
PLAYORDER=
